<svg id="visual" viewBox="0 0 900 450" width="900" height="450" xmlns="http://www.w3.org/2000/svg" xmlns:xlink="http://www.w3.org/1999/xlink" version="1.1"><rect x="0" y="0" width="900" height="450" fill="#001220"></rect><path d="M0 334L21.5 332.5C43 331 86 328 128.8 336C171.7 344 214.3 363 257.2 359.3C300 355.7 343 329.3 385.8 319.8C428.7 310.3 471.3 317.7 514.2 332.5C557 347.3 600 369.7 642.8 364.7C685.7 359.7 728.3 327.3 771.2 313.5C814 299.7 857 304.3 878.5 306.7L900 309L900 451L878.5 451C857 451 814 451 771.2 451C728.3 451 685.7 451 642.8 451C600 451 557 451 514.2 451C471.3 451 428.7 451 385.8 451C343 451 300 451 257.2 451C214.3 451 171.7 451 128.8 451C86 451 43 451 21.5 451L0 451Z" fill="#47B5FF" stroke-linecap="round" stroke-linejoin="miter"></path></svg>